<svg data-name="Layer 2" xmlns="http://www.w3.org/2000/svg" width="320" height="79.675"><g data-name="Layer 1"><path data-name="Path 30946" d="M37.262 0L0 21.515v24.922L80.426 0z" fill="none"/><path data-name="Path 30947" d="M204.381 79.675L320 12.917V0h-20.173l-138 79.675z" fill="none"/><path data-name="Path 30948" d="M167.719 0h-42.681L0 72.19v7.485h29.71z" fill="none"/><path data-name="Path 30949" d="M292.65 79.675L320 63.888V38.684l-71.01 40.991z" fill="none"/><path data-name="Path 30950" d="M117.219 79.675L255.228 0h-42.9L74.323 79.675z" fill="none"/><path data-name="Path 30951" d="M248.99 79.675L320 38.687v-25.77L204.378 79.675z"/><path data-name="Path 30952" d="M161.828 79.675L299.828 0h-44.6l-138.01 79.675z"/><path data-name="Path 30953" d="M74.322 79.675L212.331 0h-44.612L29.71 79.675z"/><path data-name="Path 30954" d="M80.426 0L0 46.437V72.19L125.038 0z"/><path data-name="Path 30955" d="M0 0v21.515L37.262 0z"/><path data-name="Path 30956" d="M320 79.674V63.887l-27.35 15.787z"/></g></svg>