<svg data-name="Layer 2" xmlns="http://www.w3.org/2000/svg" width="684" height="102.979"><g data-name="Layer 1"><path data-name="Path 30889" d="M79.643 0L0 45.989V99.25L171.9 0z" fill="none"/><path data-name="Path 30890" d="M553.486 102.979L684 27.625V0h-43.1L462.536 102.979z" fill="none"/><path data-name="Path 30891" d="M180.167 102.979L358.501 0h-91.233L88.903 102.979z" fill="none"/><path data-name="Path 30892" d="M684 102.978v-20.29l-35.145 20.29z" fill="none"/><path data-name="Path 30893" d="M367.201 102.979L545.535 0h-91.668L275.502 102.979z" fill="none"/><path data-name="Path 30894" d="M648.855 102.979L684 82.688V27.625l-130.511 75.354z"/><path data-name="Path 30895" d="M462.531 102.979L640.9 0h-95.369l-178.33 102.979z"/><path data-name="Path 30896" d="M275.502 102.979L453.866 0H358.5L180.167 102.979z"/><path data-name="Path 30897" d="M267.267 0H171.9L0 99.25v3.729h88.9z"/><path data-name="Path 30898" d="M0 0v45.989L79.643 0z"/></g></svg>