<svg xmlns="http://www.w3.org/2000/svg" width="235.672" height="39.534" viewBox="0 0 235.672 39.534">
  <g id="Group_4212" data-name="Group 4212" transform="translate(-181.909 -77.926)">
    <g id="Group_4209" data-name="Group 4209" transform="translate(277.332 87.365)">
      <path id="Path_30103" data-name="Path 30103" d="M353.893,115.047v-8.283a.233.233,0,0,0-.03-.147L347.732,95.09a.322.322,0,0,1-.03-.147q0-.206.236-.207h2.418a.347.347,0,0,1,.353.207l4.511,8.638a.1.1,0,0,0,.176,0l4.511-8.638a.347.347,0,0,1,.354-.207h2.447a.254.254,0,0,1,.221.1.216.216,0,0,1-.014.25l-6.161,11.527a.235.235,0,0,0-.029.147v8.283a.261.261,0,0,1-.3.3h-2.24A.261.261,0,0,1,353.893,115.047Z" transform="translate(-347.702 -94.5)" fill="#231f20"/>
      <path id="Path_30104" data-name="Path 30104" d="M381.145,114.579a6.329,6.329,0,0,1-2.565-2.491,7.351,7.351,0,0,1-.914-3.7v-7.016a7.267,7.267,0,0,1,.914-3.685,6.353,6.353,0,0,1,2.565-2.477,8.681,8.681,0,0,1,7.636,0,6.361,6.361,0,0,1,2.565,2.477,7.279,7.279,0,0,1,.913,3.685v7.016a7.364,7.364,0,0,1-.913,3.7,6.336,6.336,0,0,1-2.565,2.491,8.686,8.686,0,0,1-7.636,0Zm7.046-2.8a4.423,4.423,0,0,0,1.238-3.272v-7.163a4.513,4.513,0,0,0-1.238-3.316,4.358,4.358,0,0,0-3.243-1.253,4.308,4.308,0,0,0-3.228,1.253,4.543,4.543,0,0,0-1.224,3.316v7.163a4.453,4.453,0,0,0,1.224,3.272,4.335,4.335,0,0,0,3.228,1.239A4.386,4.386,0,0,0,388.191,111.778Z" transform="translate(-360.42 -94.326)" fill="#231f20"/>
      <path id="Path_30105" data-name="Path 30105" d="M413.6,114.768a6.166,6.166,0,0,1-2.549-2.388,6.843,6.843,0,0,1-.914-3.552v-13.8a.26.26,0,0,1,.294-.3h2.241a.261.261,0,0,1,.3.3v13.855a4.1,4.1,0,0,0,1.223,3.1,4.415,4.415,0,0,0,3.2,1.179,4.368,4.368,0,0,0,3.185-1.179,4.129,4.129,0,0,0,1.208-3.1V95.031a.261.261,0,0,1,.295-.3h2.241a.261.261,0,0,1,.295.3v13.8a6.936,6.936,0,0,1-.9,3.552,6.076,6.076,0,0,1-2.535,2.388,8.959,8.959,0,0,1-7.577,0Z" transform="translate(-374.203 -94.5)" fill="#231f20"/>
      <path id="Path_30106" data-name="Path 30106" d="M454.767,115.165l-4.127-8.814a.115.115,0,0,0-.118-.089h-4.245a.1.1,0,0,0-.118.118v8.7a.261.261,0,0,1-.3.295h-2.24a.26.26,0,0,1-.295-.295V95.031a.261.261,0,0,1,.295-.3h7.93a6.356,6.356,0,0,1,3.11.737,5.184,5.184,0,0,1,2.079,2.064,6.211,6.211,0,0,1,.737,3.065A5.645,5.645,0,0,1,456.4,104.1a5.286,5.286,0,0,1-2.992,1.931c-.079.039-.1.088-.059.147l4.275,8.845a.334.334,0,0,1,.029.147c0,.138-.079.207-.236.207h-2.329A.323.323,0,0,1,454.767,115.165ZM446.159,97.3v6.6a.1.1,0,0,0,.118.117H451.2a3.416,3.416,0,0,0,2.505-.928,3.3,3.3,0,0,0,.943-2.462,3.245,3.245,0,0,0-3.449-3.449h-4.923A.1.1,0,0,0,446.159,97.3Z" transform="translate(-388.29 -94.5)" fill="#231f20"/>
      <path id="Path_30107" data-name="Path 30107" d="M477.739,115.077l-5.955-19.929-.029-.117c0-.2.108-.3.324-.3h4.51a.389.389,0,0,1,.413.3l3.39,13.413c.02.058.049.088.089.088s.069-.03.088-.088L483.9,95.031a.388.388,0,0,1,.413-.3h4.422a.313.313,0,0,1,.265.118.308.308,0,0,1,.03.295l-6.043,19.929a.371.371,0,0,1-.383.295h-4.481A.371.371,0,0,1,477.739,115.077Z" transform="translate(-400.356 -94.5)" fill="#231f20"/>
      <path id="Path_30108" data-name="Path 30108" d="M505.612,115.268a.337.337,0,0,1-.1-.25V95.09a.354.354,0,0,1,.353-.354h4.187a.354.354,0,0,1,.354.354v19.929a.354.354,0,0,1-.354.353h-4.187A.338.338,0,0,1,505.612,115.268Z" transform="translate(-414.682 -94.5)" fill="#231f20"/>
      <path id="Path_30109" data-name="Path 30109" d="M533.629,98.819a.341.341,0,0,1-.25.1h-9.257a.13.13,0,0,0-.147.147V102.7a.13.13,0,0,0,.147.147h5.925a.353.353,0,0,1,.353.355v3.449a.353.353,0,0,1-.353.354h-5.925a.13.13,0,0,0-.147.147v3.891a.13.13,0,0,0,.147.147h9.257a.353.353,0,0,1,.353.355v3.479a.353.353,0,0,1-.353.353H519.434a.354.354,0,0,1-.353-.353V95.09a.354.354,0,0,1,.353-.354h13.944a.353.353,0,0,1,.353.354v3.479A.339.339,0,0,1,533.629,98.819Z" transform="translate(-420.443 -94.5)" fill="#231f20"/>
      <path id="Path_30110" data-name="Path 30110" d="M552.918,115.077l-5.483-19.958L547.405,95q0-.265.325-.265h4.481a.371.371,0,0,1,.383.3l2.565,10.731c.019.078.049.118.088.118s.068-.04.089-.118l2.3-10.7a.353.353,0,0,1,.383-.325h4.1a.371.371,0,0,1,.383.3l2.565,10.731c.019.078.049.118.088.118s.068-.04.089-.118l2.388-10.7a.353.353,0,0,1,.383-.325h4.363c.275,0,.383.128.325.383l-4.983,19.958a.388.388,0,0,1-.412.295h-4.216a.353.353,0,0,1-.383-.325l-2.565-11.379c-.02-.078-.049-.118-.089-.118s-.069.04-.088.118l-2.3,11.379a.354.354,0,0,1-.383.325H553.33A.388.388,0,0,1,552.918,115.077Z" transform="translate(-432.465 -94.5)" fill="#231f20"/>
    </g>
    <g id="Group_4210" data-name="Group 4210" transform="translate(181.909 77.926)">
      <path id="Path_30111" data-name="Path 30111" d="M181.909,77.926V117.46h84.654L287.2,77.926Z" transform="translate(-181.909 -77.926)" fill="#ea0029"/>
    </g>
    <g id="Group_4211" data-name="Group 4211" transform="translate(188.027 87.366)">
      <path id="Path_30112" data-name="Path 30112" d="M196.3,114.521a6.662,6.662,0,0,1-2.771-2.595,7.532,7.532,0,0,1-.988-3.891v-6.367a7.4,7.4,0,0,1,.988-3.848,6.692,6.692,0,0,1,2.771-2.579,8.958,8.958,0,0,1,4.142-.914,9.347,9.347,0,0,1,4.142.87,6.594,6.594,0,0,1,2.771,2.447,6.712,6.712,0,0,1,.988,3.641.294.294,0,0,1-.1.235.375.375,0,0,1-.251.089l-4.186.265c-.237,0-.355-.108-.355-.325a2.991,2.991,0,0,0-.825-2.211,2.954,2.954,0,0,0-2.182-.825,2.916,2.916,0,0,0-2.181.84,3,3,0,0,0-.825,2.2v6.692a3.008,3.008,0,1,0,6.013,0q0-.324.355-.324l4.186.206a.375.375,0,0,1,.251.089.264.264,0,0,1,.1.206,6.837,6.837,0,0,1-.988,3.685,6.558,6.558,0,0,1-2.771,2.462,9.339,9.339,0,0,1-4.142.87A8.965,8.965,0,0,1,196.3,114.521Z" transform="translate(-192.538 -94.327)" fill="#fff"/>
      <path id="Path_30113" data-name="Path 30113" d="M224.4,115.269a.341.341,0,0,1-.1-.25V95.09a.343.343,0,0,1,.1-.25.338.338,0,0,1,.25-.1h4.187a.353.353,0,0,1,.354.353v15.949a.13.13,0,0,0,.147.147h9.4a.338.338,0,0,1,.25.1.342.342,0,0,1,.1.25v3.479a.341.341,0,0,1-.1.25.338.338,0,0,1-.25.1H224.648A.338.338,0,0,1,224.4,115.269Z" transform="translate(-206.017 -94.501)" fill="#fff"/>
      <path id="Path_30114" data-name="Path 30114" d="M268.192,98.82a.343.343,0,0,1-.251.1h-9.257a.13.13,0,0,0-.147.147V102.7a.13.13,0,0,0,.147.147h5.925a.353.353,0,0,1,.355.354v3.449a.353.353,0,0,1-.355.354h-5.925a.13.13,0,0,0-.147.147v3.891a.13.13,0,0,0,.147.147h9.257a.352.352,0,0,1,.353.354v3.479a.351.351,0,0,1-.353.353H254a.352.352,0,0,1-.353-.353V95.09a.352.352,0,0,1,.353-.353h13.944a.351.351,0,0,1,.353.353v3.479A.343.343,0,0,1,268.192,98.82Z" transform="translate(-218.474 -94.501)" fill="#fff"/>
      <path id="Path_30115" data-name="Path 30115" d="M295.718,115.078l-.767-2.624c-.04-.079-.089-.118-.147-.118h-6.721c-.059,0-.109.039-.148.118l-.766,2.624a.389.389,0,0,1-.414.294h-4.509a.329.329,0,0,1-.265-.1.321.321,0,0,1-.029-.309l6.309-19.929a.369.369,0,0,1,.383-.295h5.571a.369.369,0,0,1,.383.295l6.338,19.929a.319.319,0,0,1,.031.147c0,.177-.109.265-.325.265H296.13A.387.387,0,0,1,295.718,115.078Zm-6.486-6.516h4.393c.118,0,.156-.059.118-.176l-2.24-7.577c-.021-.078-.049-.113-.089-.1a.139.139,0,0,0-.089.1l-2.211,7.577Q289.085,108.562,289.231,108.562Z" transform="translate(-230.479 -94.501)" fill="#fff"/>
      <path id="Path_30116" data-name="Path 30116" d="M329.385,115.107l-3.479-7.841a.189.189,0,0,0-.177-.118h-1.946a.13.13,0,0,0-.147.147v7.724a.353.353,0,0,1-.354.353H319.1a.353.353,0,0,1-.353-.353V95.09a.353.353,0,0,1,.353-.353h8.756a7.087,7.087,0,0,1,3.42.8,5.62,5.62,0,0,1,2.285,2.255,6.781,6.781,0,0,1,.811,3.346,5.976,5.976,0,0,1-.974,3.42,5.478,5.478,0,0,1-2.711,2.093.141.141,0,0,0-.089.207l3.892,8.107a.471.471,0,0,1,.058.176c0,.158-.108.236-.323.236H329.8A.416.416,0,0,1,329.385,115.107ZM323.636,99.07v4.186a.13.13,0,0,0,.147.147h3.273a2.562,2.562,0,0,0,1.769-.6,2.05,2.05,0,0,0,.678-1.606,2.133,2.133,0,0,0-.678-1.651,2.524,2.524,0,0,0-1.769-.619h-3.273A.13.13,0,0,0,323.636,99.07Z" transform="translate(-246.105 -94.501)" fill="#fff"/>
    </g>
  </g>
</svg>
