<svg id="Layer_2" data-name="Layer 2" xmlns="http://www.w3.org/2000/svg" width="320" height="79.675" viewBox="0 0 320 79.675">
  <g id="Layer_1" data-name="Layer 1">
    <path id="Path_30946" data-name="Path 30946" d="M37.262,0,0,21.515V46.437L80.426,0Z" fill="none"/>
    <path id="Path_30947" data-name="Path 30947" d="M163.2,79.675,278.819,12.917V0H258.646l-138,79.675Z" transform="translate(41.181)" fill="none"/>
    <path id="Path_30948" data-name="Path 30948" d="M167.719,0H125.038L0,72.19v7.485H29.71Z" fill="none"/>
    <path id="Path_30949" data-name="Path 30949" d="M229.29,69.831l27.35-15.787V28.84L185.63,69.831Z" transform="translate(63.36 9.844)" fill="none"/>
    <path id="Path_30950" data-name="Path 30950" d="M98.306,79.675,236.315,0h-42.9L55.41,79.675Z" transform="translate(18.913)" fill="none"/>
    <path id="Path_30951" data-name="Path 30951" d="M196.982,76.388,267.992,35.4V9.63L152.37,76.388Z" transform="translate(52.008 3.287)"/>
    <path id="Path_30952" data-name="Path 30952" d="M132,79.675,270,0H225.4L87.39,79.675Z" transform="translate(29.828)"/>
    <path id="Path_30953" data-name="Path 30953" d="M66.762,79.675,204.771,0H160.159L22.15,79.675Z" transform="translate(7.56)"/>
    <path id="Path_30954" data-name="Path 30954" d="M80.426,0,0,46.437V72.19L125.038,0Z"/>
    <path id="Path_30955" data-name="Path 30955" d="M0,0V21.515L37.262,0Z"/>
    <path id="Path_30956" data-name="Path 30956" d="M245.53,63.417V47.63L218.18,63.417Z" transform="translate(74.47 16.257)"/>
  </g>
</svg>
