<svg id="Layer_2" data-name="Layer 2" xmlns="http://www.w3.org/2000/svg" width="684" height="102.979" viewBox="0 0 684 102.979">
  <g id="Layer_1" data-name="Layer 1">
    <path id="Path_30889" data-name="Path 30889" d="M79.643,0,0,45.989V99.25L171.9,0Z" fill="none"/>
    <path id="Path_30890" data-name="Path 30890" d="M239.8,102.979,370.314,27.625V0h-43.1L148.85,102.979Z" transform="translate(313.686)" fill="none"/>
    <path id="Path_30891" data-name="Path 30891" d="M119.874,102.979,298.208,0H206.975L28.61,102.979Z" transform="translate(60.293)" fill="none"/>
    <path id="Path_30892" data-name="Path 30892" d="M243.955,46.9V26.61L208.81,46.9Z" transform="translate(440.045 56.078)" fill="none"/>
    <path id="Path_30893" data-name="Path 30893" d="M180.359,102.979,358.693,0H267.025L88.66,102.979Z" transform="translate(186.842)" fill="none"/>
    <path id="Path_30894" data-name="Path 30894" d="M273.486,84.244l35.145-20.291V8.89L178.12,84.244Z" transform="translate(375.369 18.735)"/>
    <path id="Path_30895" data-name="Path 30895" d="M213.5,102.979,391.869,0H296.5L118.17,102.979Z" transform="translate(249.031)"/>
    <path id="Path_30896" data-name="Path 30896" d="M153.315,102.979,331.679,0H236.313L57.98,102.979Z" transform="translate(122.187)"/>
    <path id="Path_30897" data-name="Path 30897" d="M267.267,0H171.9L0,99.25v3.729H88.9Z"/>
    <path id="Path_30898" data-name="Path 30898" d="M0,0V45.989L79.643,0Z"/>
  </g>
</svg>
