<svg data-name="Layer 2" xmlns="http://www.w3.org/2000/svg" width="584.393" height="549.904"><g data-name="Layer 1"><path data-name="Path 30908" d="M523.942 0L0 302.472v73.678l584.393-337.4V0z" fill="none"/><path data-name="Path 30909" d="M127.952 0H0v73.9z" fill="none"/><path data-name="Path 30910" d="M0 528.918l584.393-337.4v-75.59L0 453.326z" fill="none"/><path data-name="Path 30911" d="M225.569 549.904l358.824-207.15v-74.06L97.344 549.904z" fill="none"/><path data-name="Path 30912" d="M0 225.3L390.2 0H261.643L0 151.072z" fill="none"/><path data-name="Path 30913" d="M489.673 549.9l94.721-54.657V419.93L359.261 549.9z" fill="none"/><path data-name="Path 30914" d="M0 453.326l584.393-337.4V38.752L0 376.15z"/><path data-name="Path 30915" d="M0 302.472L523.942 0H390.2L0 225.3z"/><path data-name="Path 30916" d="M0 151.072L261.643 0H127.952L0 73.9z"/><path data-name="Path 30917" d="M0 549.904h97.344l487.049-281.21v-77.176L0 528.916z"/><path data-name="Path 30918" d="M359.261 549.904L584.393 419.93v-77.176L225.57 549.904z"/><path data-name="Path 30919" d="M584.393 549.904v-54.657l-94.721 54.657z"/></g></svg>