<svg data-name="Layer 2" xmlns="http://www.w3.org/2000/svg" width="320" height="46.28"><g data-name="Layer 1"><path data-name="Path 30936" d="M18.034 0L0 10.412v24.927L61.2 0z" fill="none"/><path data-name="Path 30937" d="M200.435 46.28h42.56l77-44.456V0h-39.4z" fill="none"/><path data-name="Path 30938" d="M105.798 0l-80.16 46.28h42.687L148.485 0z" fill="none"/><path data-name="Path 30939" d="M320 46.28V27.571L287.6 46.28z" fill="none"/><path data-name="Path 30940" d="M193.105 0l-80.16 46.28h42.888L235.992 0z" fill="none"/><path data-name="Path 30941" d="M287.597 46.279l32.4-18.709V1.823l-77 44.456z"/><path data-name="Path 30942" d="M235.993 0l-80.16 46.28h44.6L280.595 0z"/><path data-name="Path 30943" d="M148.485 0l-80.16 46.28h44.62L193.105 0z"/><path data-name="Path 30944" d="M61.2 0L0 35.339V46.28h25.638L105.8 0z"/><path data-name="Path 30945" d="M0 0v10.412L18.034 0z"/></g></svg>