<svg xmlns="http://www.w3.org/2000/svg" width="956.711" height="548.491"><g data-name="Layer 2"><g data-name="Layer 1"><path data-name="Path 30088" d="M111.431 0L-.001 64.33v74.47L240.472 0z" fill="none"/><path data-name="Path 30089" d="M956.711 0h-60.3L0 517.526v30.965h73.6L956.711 38.652z" fill="none"/><path data-name="Path 30090" d="M373.82 0L0 215.831v73.652L501.443 0z" fill="none"/><path data-name="Path 30091" d="M956.711 115.63L206.999 548.491h130.512l619.2-357.465z" fill="none"/><path data-name="Path 30092" d="M956.711 268.003l-485.8 280.488h127.9l357.9-206.618z" fill="none"/><path data-name="Path 30093" d="M634.788 0L-.001 366.515v74.034L763.068 0z" fill="none"/><path data-name="Path 30094" d="M956.711 418.851l-224.5 129.64h130.077l94.423-54.516z" fill="none"/><path data-name="Path 30095" d="M956.711 38.652L73.597 548.491h133.4l749.714-432.862z" fill="#131313"/><path data-name="Path 30096" d="M763.068 0L0 440.548v76.977L896.416 0z" fill="#131313"/><path data-name="Path 30097" d="M501.441 0L0 289.483v77.032L634.791 0z" fill="#131313"/><path data-name="Path 30098" d="M240.472 0L0 138.8v77.032L373.82 0z" fill="#131313"/><path data-name="Path 30099" d="M-.001 0v64.33L111.431 0z" fill="#131313"/><path data-name="Path 30100" d="M956.711 191.026l-619.2 357.465h133.4l485.8-280.488z" fill="#131313"/><path data-name="Path 30101" d="M956.711 341.873l-357.9 206.618h133.4l224.5-129.641z" fill="#131313"/><path data-name="Path 30102" d="M956.711 493.975l-94.423 54.517h94.423z" fill="#131313"/></g></g></svg>