<svg xmlns="http://www.w3.org/2000/svg" width="235.672" height="39.534"><g data-name="Group 4212"><g data-name="Group 4209" fill="#231f20"><path data-name="Path 30103" d="M101.614 29.986v-8.283a.233.233 0 00-.03-.147l-6.131-11.527a.322.322 0 01-.03-.147q0-.206.236-.207h2.418a.347.347 0 01.353.207l4.511 8.638a.1.1 0 00.176 0l4.511-8.638a.347.347 0 01.354-.207h2.447a.254.254 0 01.221.1.216.216 0 01-.014.25l-6.161 11.527a.235.235 0 00-.029.147v8.283a.261.261 0 01-.3.3h-2.24a.261.261 0 01-.292-.296z"/><path data-name="Path 30104" d="M116.148 29.692a6.329 6.329 0 01-2.565-2.491 7.351 7.351 0 01-.914-3.7v-7.016a7.267 7.267 0 01.914-3.685 6.353 6.353 0 012.565-2.477 8.681 8.681 0 017.636 0 6.361 6.361 0 012.565 2.477 7.279 7.279 0 01.913 3.685v7.016a7.364 7.364 0 01-.913 3.7 6.336 6.336 0 01-2.565 2.491 8.686 8.686 0 01-7.636 0zm7.046-2.8a4.423 4.423 0 001.238-3.272v-7.163a4.513 4.513 0 00-1.238-3.316 4.358 4.358 0 00-3.243-1.253 4.308 4.308 0 00-3.228 1.253 4.543 4.543 0 00-1.224 3.316v7.163a4.453 4.453 0 001.224 3.272 4.335 4.335 0 003.228 1.239 4.386 4.386 0 003.243-1.24z"/><path data-name="Path 30105" d="M134.82 29.707a6.166 6.166 0 01-2.549-2.388 6.843 6.843 0 01-.914-3.552v-13.8a.26.26 0 01.294-.3h2.241a.261.261 0 01.3.3v13.855a4.1 4.1 0 001.223 3.1 4.415 4.415 0 003.2 1.179 4.368 4.368 0 003.185-1.179 4.129 4.129 0 001.208-3.1V9.97a.261.261 0 01.295-.3h2.241a.261.261 0 01.295.3v13.8a6.936 6.936 0 01-.9 3.552 6.076 6.076 0 01-2.535 2.388 8.959 8.959 0 01-7.577 0z"/><path data-name="Path 30106" d="M161.9 30.104l-4.127-8.814a.115.115 0 00-.118-.089h-4.245a.1.1 0 00-.118.118v8.7a.261.261 0 01-.3.295h-2.24a.26.26 0 01-.295-.295V9.97a.261.261 0 01.295-.3h7.93a6.356 6.356 0 013.11.737 5.184 5.184 0 012.079 2.064 6.211 6.211 0 01.737 3.065 5.645 5.645 0 01-1.075 3.503 5.286 5.286 0 01-2.992 1.931c-.079.039-.1.088-.059.147l4.275 8.845a.334.334 0 01.029.147c0 .138-.079.207-.236.207h-2.329a.323.323 0 01-.321-.212zm-8.608-17.865v6.6a.1.1 0 00.118.117h4.923a3.416 3.416 0 002.505-.928 3.3 3.3 0 00.943-2.462 3.245 3.245 0 00-3.449-3.449h-4.923a.1.1 0 00-.117.122z"/><path data-name="Path 30107" d="M172.806 30.016l-5.955-19.929-.029-.117c0-.2.108-.3.324-.3h4.51a.389.389 0 01.413.3l3.39 13.413c.02.058.049.088.089.088s.069-.03.088-.088l3.331-13.413a.388.388 0 01.413-.3h4.422a.313.313 0 01.265.118.308.308 0 01.03.295l-6.043 19.929a.371.371 0 01-.383.295h-4.481a.371.371 0 01-.384-.291z"/><path data-name="Path 30108" d="M186.353 30.207a.337.337 0 01-.1-.25V10.029a.354.354 0 01.353-.354h4.187a.354.354 0 01.354.354v19.929a.354.354 0 01-.354.353h-4.187a.338.338 0 01-.253-.104z"/><path data-name="Path 30109" d="M208.609 13.758a.341.341 0 01-.25.1h-9.257a.13.13 0 00-.147.147v3.634a.13.13 0 00.147.147h5.925a.353.353 0 01.353.355v3.449a.353.353 0 01-.353.354h-5.925a.13.13 0 00-.147.147v3.891a.13.13 0 00.147.147h9.257a.353.353 0 01.353.355v3.479a.353.353 0 01-.353.353h-13.945a.354.354 0 01-.353-.353V10.029a.354.354 0 01.353-.354h13.944a.353.353 0 01.353.354v3.479a.339.339 0 01-.102.25z"/><path data-name="Path 30110" d="M215.876 30.016l-5.483-19.958-.03-.119q0-.265.325-.265h4.481a.371.371 0 01.383.3l2.565 10.731c.019.078.049.118.088.118s.068-.04.089-.118l2.3-10.7a.353.353 0 01.383-.325h4.1a.371.371 0 01.383.3l2.565 10.731c.019.078.049.118.088.118s.068-.04.089-.118l2.388-10.7a.353.353 0 01.383-.325h4.363c.275 0 .383.128.325.383l-4.983 19.958a.388.388 0 01-.412.295h-4.216a.353.353 0 01-.383-.325l-2.565-11.379c-.02-.078-.049-.118-.089-.118s-.069.04-.088.118l-2.3 11.379a.354.354 0 01-.383.325h-3.954a.388.388 0 01-.412-.306z"/></g><g data-name="Group 4210"><path data-name="Path 30111" d="M0 0v39.534h84.654L105.291 0z" fill="#ea0029"/></g><g data-name="Group 4211" fill="#fff"><path data-name="Path 30112" d="M9.88 29.634a6.662 6.662 0 01-2.771-2.595 7.532 7.532 0 01-.988-3.891v-6.367a7.4 7.4 0 01.988-3.848 6.692 6.692 0 012.771-2.579 8.958 8.958 0 014.142-.914 9.347 9.347 0 014.142.87 6.594 6.594 0 012.771 2.447 6.712 6.712 0 01.988 3.641.294.294 0 01-.1.235.375.375 0 01-.251.089l-4.186.265c-.237 0-.355-.108-.355-.325a2.991 2.991 0 00-.825-2.211 2.954 2.954 0 00-2.182-.825 2.916 2.916 0 00-2.181.84 3 3 0 00-.825 2.2v6.692a3.008 3.008 0 106.013 0q0-.324.355-.324l4.186.206a.375.375 0 01.251.089.264.264 0 01.1.206 6.837 6.837 0 01-.988 3.685 6.558 6.558 0 01-2.771 2.462 9.339 9.339 0 01-4.142.87 8.965 8.965 0 01-4.142-.918z"/><path data-name="Path 30113" d="M24.501 30.208a.341.341 0 01-.1-.25V10.029a.343.343 0 01.1-.25.338.338 0 01.25-.1h4.187a.353.353 0 01.354.353v15.949a.13.13 0 00.147.147h9.4a.338.338 0 01.25.1.342.342 0 01.1.25v3.479a.341.341 0 01-.1.25.338.338 0 01-.25.1h-14.09a.338.338 0 01-.248-.099z"/><path data-name="Path 30114" d="M55.836 13.759a.343.343 0 01-.251.1h-9.257a.13.13 0 00-.147.147v3.633a.13.13 0 00.147.147h5.925a.353.353 0 01.355.354v3.449a.353.353 0 01-.355.354h-5.925a.13.13 0 00-.147.147v3.891a.13.13 0 00.147.147h9.257a.352.352 0 01.353.354v3.479a.351.351 0 01-.353.353H41.644a.352.352 0 01-.353-.353V10.029a.352.352 0 01.353-.353h13.944a.351.351 0 01.353.353v3.479a.343.343 0 01-.105.251z"/><path data-name="Path 30115" d="M71.357 30.017l-.767-2.624c-.04-.079-.089-.118-.147-.118h-6.721c-.059 0-.109.039-.148.118l-.766 2.624a.389.389 0 01-.414.294h-4.509a.329.329 0 01-.265-.1.321.321 0 01-.029-.309L63.9 9.973a.369.369 0 01.383-.295h5.571a.369.369 0 01.383.295l6.338 19.929a.319.319 0 01.031.147c0 .177-.109.265-.325.265h-4.512a.387.387 0 01-.412-.297zm-6.486-6.516h4.393c.118 0 .156-.059.118-.176l-2.24-7.577c-.021-.078-.049-.113-.089-.1a.139.139 0 00-.089.1l-2.211 7.577q-.029.176.117.176z"/><path data-name="Path 30116" d="M89.398 30.046l-3.479-7.841a.189.189 0 00-.177-.118h-1.946a.13.13 0 00-.147.147v7.724a.353.353 0 01-.354.353h-4.182a.353.353 0 01-.353-.353V10.029a.353.353 0 01.353-.353h8.756a7.087 7.087 0 013.42.8 5.62 5.62 0 012.285 2.255 6.781 6.781 0 01.811 3.346 5.976 5.976 0 01-.974 3.42A5.478 5.478 0 0190.7 21.59a.141.141 0 00-.089.207l3.892 8.107a.471.471 0 01.058.176c0 .158-.108.236-.323.236h-4.425a.416.416 0 01-.415-.27zm-5.749-16.037v4.186a.13.13 0 00.147.147h3.273a2.562 2.562 0 001.769-.6 2.05 2.05 0 00.678-1.606 2.133 2.133 0 00-.678-1.651 2.524 2.524 0 00-1.769-.619h-3.273a.13.13 0 00-.147.143z"/></g></g></svg>