<svg id="Layer_2" data-name="Layer 2" xmlns="http://www.w3.org/2000/svg" width="584.393" height="549.904" viewBox="0 0 584.393 549.904">
  <g id="Layer_1" data-name="Layer 1">
    <path id="Path_30908" data-name="Path 30908" d="M523.942,0,0,302.472V376.15l584.393-337.4V0Z" fill="none"/>
    <path id="Path_30909" data-name="Path 30909" d="M127.952,0H0V73.9Z" fill="none"/>
    <path id="Path_30910" data-name="Path 30910" d="M0,434.2,584.393,96.8V21.21L0,358.608Z" transform="translate(0 94.718)" fill="none"/>
    <path id="Path_30911" data-name="Path 30911" d="M146.035,330.37,504.859,123.22V49.16L17.81,330.37Z" transform="translate(79.534 219.534)" fill="none"/>
    <path id="Path_30912" data-name="Path 30912" d="M0,225.3,390.2,0H261.643L0,151.072Z" fill="none"/>
    <path id="Path_30913" data-name="Path 30913" d="M196.142,206.8l94.721-54.657V76.83L65.73,206.8Z" transform="translate(293.531 343.1)" fill="none"/>
    <path id="Path_30914" data-name="Path 30914" d="M0,421.664l584.393-337.4V7.09L0,344.488Z" transform="translate(0 31.662)"/>
    <path id="Path_30915" data-name="Path 30915" d="M0,302.472,523.942,0H390.2L0,225.3Z"/>
    <path id="Path_30916" data-name="Path 30916" d="M0,151.072,261.643,0H127.952L0,73.9Z"/>
    <path id="Path_30917" data-name="Path 30917" d="M0,393.426H97.344l487.049-281.21V35.04L0,372.438Z" transform="translate(0 156.478)"/>
    <path id="Path_30918" data-name="Path 30918" d="M174.961,269.86,400.093,139.886V62.71L41.27,269.86Z" transform="translate(184.3 280.044)"/>
    <path id="Path_30919" data-name="Path 30919" d="M184.311,145.267V90.61L89.59,145.267Z" transform="translate(400.082 404.637)"/>
  </g>
</svg>
