<svg xmlns="http://www.w3.org/2000/svg" width="956.711" height="548.491" viewBox="0 0 956.711 548.491">
  <g id="Layer_2" data-name="Layer 2" transform="translate(956.711) rotate(90)">
    <g id="Layer_1" data-name="Layer 1">
      <path id="Path_30088" data-name="Path 30088" d="M0,260.421,64.33,371.853H138.8L0,131.38Z" transform="translate(0 584.859)" fill="none"/>
      <path id="Path_30089" data-name="Path 30089" d="M0,0V60.3L517.526,956.711h30.965v-73.6L38.652,0Z" fill="none"/>
      <path id="Path_30090" data-name="Path 30090" d="M0,211.133l215.831,373.82h73.652L0,83.51Z" transform="translate(0 371.758)" fill="none"/>
      <path id="Path_30091" data-name="Path 30091" d="M21.21,0,454.071,749.712V619.2L96.606,0Z" transform="translate(94.42)" fill="none"/>
      <path id="Path_30092" data-name="Path 30092" d="M49.16,0,329.648,485.8V357.9L123.03,0Z" transform="translate(218.843)" fill="none"/>
      <path id="Path_30093" data-name="Path 30093" d="M0,163.8,366.515,798.589h74.034L0,35.52Z" transform="translate(0 158.123)" fill="none"/>
      <path id="Path_30094" data-name="Path 30094" d="M76.83,0,206.47,224.5V94.423L151.954,0Z" transform="translate(342.021)" fill="none"/>
      <path id="Path_30095" data-name="Path 30095" d="M7.09,0,516.929,883.114v-133.4L84.067,0Z" transform="translate(31.562)" fill="#131313"/>
      <path id="Path_30096" data-name="Path 30096" d="M0,144.408,440.548,907.476h76.977L0,11.06Z" transform="translate(0 49.235)" fill="#131313"/>
      <path id="Path_30097" data-name="Path 30097" d="M0,192.4,289.483,693.841h77.032L0,59.05Z" transform="translate(0 262.87)" fill="#131313"/>
      <path id="Path_30098" data-name="Path 30098" d="M0,240.268,138.8,480.74h77.032L0,106.92Z" transform="translate(0 475.971)" fill="#131313"/>
      <path id="Path_30099" data-name="Path 30099" d="M0,266.482H64.33L0,155.05Z" transform="translate(0 690.23)" fill="#131313"/>
      <path id="Path_30100" data-name="Path 30100" d="M35.04,0,392.505,619.2V485.8L112.017,0Z" transform="translate(155.986)" fill="#131313"/>
      <path id="Path_30101" data-name="Path 30101" d="M62.71,0,269.328,357.9V224.5L139.687,0Z" transform="translate(279.163)" fill="#131313"/>
      <path id="Path_30102" data-name="Path 30102" d="M90.61,0l54.517,94.423V0Z" transform="translate(403.365)" fill="#131313"/>
    </g>
  </g>
</svg>
