<svg id="Layer_2" data-name="Layer 2" xmlns="http://www.w3.org/2000/svg" width="320" height="46.28" viewBox="0 0 320 46.28">
  <g id="Layer_1" data-name="Layer 1">
    <path id="Path_30936" data-name="Path 30936" d="M18.034,0,0,10.412V35.339L61.2,0Z" fill="none"/>
    <path id="Path_30937" data-name="Path 30937" d="M109.92,46.28h42.56l77-44.456V0H190.08Z" transform="translate(90.515)" fill="none"/>
    <path id="Path_30938" data-name="Path 30938" d="M94.22,0,14.06,46.28H56.747L136.907,0Z" transform="translate(11.578)" fill="none"/>
    <path id="Path_30939" data-name="Path 30939" d="M190.123,33.829V15.12l-32.4,18.709Z" transform="translate(129.877 12.451)" fill="none"/>
    <path id="Path_30940" data-name="Path 30940" d="M142.1,0,61.94,46.28h42.888L184.987,0Z" transform="translate(51.005)" fill="none"/>
    <path id="Path_30941" data-name="Path 30941" d="M177.862,45.456l32.4-18.709V1l-77,44.456Z" transform="translate(109.735 0.823)"/>
    <path id="Path_30942" data-name="Path 30942" d="M165.62,0,85.46,46.28h44.6L210.222,0Z" transform="translate(70.373)"/>
    <path id="Path_30943" data-name="Path 30943" d="M117.63,0,37.47,46.28H82.09L162.25,0Z" transform="translate(30.855)"/>
    <path id="Path_30944" data-name="Path 30944" d="M61.2,0,0,35.339V46.28H25.638L105.8,0Z"/>
    <path id="Path_30945" data-name="Path 30945" d="M0,0V10.412L18.034,0Z"/>
  </g>
</svg>
